HIERARCHY
ROOT Hips
{
	OFFSET 0.000000 121.760803 0.000000
	CHANNELS 6 Xposition Yposition Zposition Xrotation Yrotation Zrotation 
	JOINT Spine
	{
		OFFSET 0.072000 7.257294 -0.789700
		CHANNELS 3 Xrotation Yrotation Zrotation
		JOINT Spine1
		{
			OFFSET 0.000000 12.508769 -0.658067
			CHANNELS 3 Xrotation Yrotation Zrotation
			JOINT Spine1_split
			{
				OFFSET 0.000000 12.508769 -0.658067
				CHANNELS 3 Xrotation Yrotation Zrotation
				JOINT Spine2
				{
					OFFSET 0.000000 12.508769 -0.658067
					CHANNELS 3 Xrotation Yrotation Zrotation
					JOINT Neck
					{
						OFFSET 0.000000 14.033295 7.520400
						CHANNELS 3 Xrotation Yrotation Zrotation
						JOINT Head
						{
							OFFSET 0.000000 8.198502 5.703100
							CHANNELS 3 Xrotation Yrotation Zrotation
							JOINT HeadTop_End
							{
								OFFSET 0.000000 17.760803 13.332701
								CHANNELS 3 Xrotation Yrotation Zrotation
								End Site
								{
									OFFSET 0.000000 0.000000 0.000000
								}
							}
						}
					}
					JOINT LeftShoulder
					{
						OFFSET 6.292450 5.785301 -0.669000
						CHANNELS 3 Xrotation Yrotation Zrotation
						JOINT LeftShoulder_split
						{
							OFFSET 6.292450 5.785301 -0.669000
							CHANNELS 3 Xrotation Yrotation Zrotation
							JOINT LeftArm
							{
								OFFSET 13.907140 -6.093903 1.965100
								CHANNELS 3 Xrotation Yrotation Zrotation
								JOINT LeftForeArm
								{
									OFFSET 34.140198 0.000000 0.000000
									CHANNELS 3 Xrotation Yrotation Zrotation
									JOINT LeftHand
									{
										OFFSET 40.960209 0.000000 0.000000
										CHANNELS 3 Xrotation Yrotation Zrotation
										JOINT LeftHandThumb1
										{
											OFFSET 10.006996 -7.170425 9.573125
											CHANNELS 3 Xrotation Yrotation Zrotation
											JOINT LeftHandThumb2
											{
												OFFSET 1.835007 -1.059448 1.059443
												CHANNELS 3 Xrotation Yrotation Zrotation
												JOINT LeftHandThumb3
												{
													OFFSET 2.112267 -1.219513 1.219518
													CHANNELS 3 Xrotation Yrotation Zrotation
													JOINT LeftHandThumb4
													{
														OFFSET 4.843811 -2.796570 2.796576
														CHANNELS 3 Xrotation Yrotation Zrotation
														End Site
														{
															OFFSET 0.000000 0.000000 0.000000
														}
													}
												}
											}
										}
										JOINT LeftHandIndex1
										{
											OFFSET 18.389847 -0.922348 4.596882
											CHANNELS 3 Xrotation Yrotation Zrotation
											JOINT LeftHandIndex2
											{
												OFFSET 4.711273 0.000000 0.000000
												CHANNELS 3 Xrotation Yrotation Zrotation
												JOINT LeftHandIndex3
												{
													OFFSET 2.886131 0.000000 0.000000
													CHANNELS 3 Xrotation Yrotation Zrotation
													JOINT LeftHandIndex4
													{
														OFFSET 6.145912 0.000000 0.000000
														CHANNELS 3 Xrotation Yrotation Zrotation
														End Site
														{
															OFFSET 0.000000 0.000000 0.000000
														}
													}
												}
											}
										}
										JOINT LeftHandMiddle1
										{
											OFFSET 18.013008 0.000000 0.000000
											CHANNELS 3 Xrotation Yrotation Zrotation
											JOINT LeftHandMiddle2
											{
												OFFSET 4.946693 0.000000 0.000000
												CHANNELS 3 Xrotation Yrotation Zrotation
												JOINT LeftHandMiddle3
												{
													OFFSET 3.342232 0.000000 0.000000
													CHANNELS 3 Xrotation Yrotation Zrotation
													JOINT LeftHandMiddle4
													{
														OFFSET 4.461754 0.000000 0.000000
														CHANNELS 3 Xrotation Yrotation Zrotation
														End Site
														{
															OFFSET 0.000000 0.000000 0.000000
														}
													}
												}
											}
										}
										JOINT LeftHandRing1
										{
											OFFSET 15.849892 -0.102921 -4.126150
											CHANNELS 3 Xrotation Yrotation Zrotation
											JOINT LeftHandRing2
											{
												OFFSET 3.527054 0.000000 0.000000
												CHANNELS 3 Xrotation Yrotation Zrotation
												JOINT LeftHandRing3
												{
													OFFSET 2.961098 0.000000 0.000000
													CHANNELS 3 Xrotation Yrotation Zrotation
													JOINT LeftHandRing4
													{
														OFFSET 4.927200 0.000000 0.000000
														CHANNELS 3 Xrotation Yrotation Zrotation
														End Site
														{
															OFFSET 0.000000 0.000000 0.000000
														}
													}
												}
											}
										}
										JOINT LeftHandPinky1
										{
											OFFSET 12.791824 -0.832031 -6.799156
											CHANNELS 3 Xrotation Yrotation Zrotation
											JOINT LeftHandPinky2
											{
												OFFSET 3.327133 0.000000 0.000000
												CHANNELS 3 Xrotation Yrotation Zrotation
												JOINT LeftHandPinky3
												{
													OFFSET 3.014900 0.000000 0.000000
													CHANNELS 3 Xrotation Yrotation Zrotation
													JOINT LeftHandPinky4
													{
														OFFSET 5.847786 0.000000 0.000000
														CHANNELS 3 Xrotation Yrotation Zrotation
														End Site
														{
															OFFSET 0.000000 0.000000 0.000000
														}
													}
												}
											}
										}
									}
								}
							}
						}
					}
					JOINT RightShoulder
					{
						OFFSET -6.292450 5.785301 -0.669000
						CHANNELS 3 Xrotation Yrotation Zrotation
						JOINT RightShoulder_split
						{
							OFFSET -6.292450 5.785301 -0.669000
							CHANNELS 3 Xrotation Yrotation Zrotation
							JOINT RightArm
							{
								OFFSET -13.907140 -6.093903 1.965100
								CHANNELS 3 Xrotation Yrotation Zrotation
								JOINT RightForeArm
								{
									OFFSET -34.140198 0.000000 0.000000
									CHANNELS 3 Xrotation Yrotation Zrotation
									JOINT RightHand
									{
										OFFSET -40.960209 0.000000 0.000000
										CHANNELS 3 Xrotation Yrotation Zrotation
										JOINT RightHandThumb1
										{
											OFFSET -10.007050 -7.170456 9.573117
											CHANNELS 3 Xrotation Yrotation Zrotation
											JOINT RightHandThumb2
											{
												OFFSET -1.835007 -1.059448 1.059443
												CHANNELS 3 Xrotation Yrotation Zrotation
												JOINT RightHandThumb3
												{
													OFFSET -2.112267 -1.219513 1.219518
													CHANNELS 3 Xrotation Yrotation Zrotation
													JOINT RightHandThumb4
													{
														OFFSET -4.843834 -2.796585 2.796590
														CHANNELS 3 Xrotation Yrotation Zrotation
														End Site
														{
															OFFSET 0.000000 0.000000 0.000000
														}
													}
												}
											}
										}
										JOINT RightHandIndex1
										{
											OFFSET -18.389870 -0.922424 4.596786
											CHANNELS 3 Xrotation Yrotation Zrotation
											JOINT RightHandIndex2
											{
												OFFSET -4.711273 0.000000 0.000000
												CHANNELS 3 Xrotation Yrotation Zrotation
												JOINT RightHandIndex3
												{
													OFFSET -2.886131 0.000000 0.000000
													CHANNELS 3 Xrotation Yrotation Zrotation
													JOINT RightHandIndex4
													{
														OFFSET -6.145920 0.000000 0.000000
														CHANNELS 3 Xrotation Yrotation Zrotation
														End Site
														{
															OFFSET 0.000000 0.000000 0.000000
														}
													}
												}
											}
										}
										JOINT RightHandMiddle1
										{
											OFFSET -18.013008 0.000000 0.000000
											CHANNELS 3 Xrotation Yrotation Zrotation
											JOINT RightHandMiddle2
											{
												OFFSET -4.946693 0.000000 0.000000
												CHANNELS 3 Xrotation Yrotation Zrotation
												JOINT RightHandMiddle3
												{
													OFFSET -3.342232 0.000000 0.000000
													CHANNELS 3 Xrotation Yrotation Zrotation
													JOINT RightHandMiddle4
													{
														OFFSET -4.461754 0.000000 0.000000
														CHANNELS 3 Xrotation Yrotation Zrotation
														End Site
														{
															OFFSET 0.000000 0.000000 0.000000
														}
													}
												}
											}
										}
										JOINT RightHandRing1
										{
											OFFSET -15.849876 -0.102936 -4.126237
											CHANNELS 3 Xrotation Yrotation Zrotation
											JOINT RightHandRing2
											{
												OFFSET -3.527054 0.000000 0.000000
												CHANNELS 3 Xrotation Yrotation Zrotation
												JOINT RightHandRing3
												{
													OFFSET -2.961098 0.000000 0.000000
													CHANNELS 3 Xrotation Yrotation Zrotation
													JOINT RightHandRing4
													{
														OFFSET -4.927200 0.000000 0.000000
														CHANNELS 3 Xrotation Yrotation Zrotation
														End Site
														{
															OFFSET 0.000000 0.000000 0.000000
														}
													}
												}
											}
										}
										JOINT RightHandPinky1
										{
											OFFSET -12.791786 -0.832077 -6.799222
											CHANNELS 3 Xrotation Yrotation Zrotation
											JOINT RightHandPinky2
											{
												OFFSET -3.327133 0.000000 0.000000
												CHANNELS 3 Xrotation Yrotation Zrotation
												JOINT RightHandPinky3
												{
													OFFSET -3.014900 0.000000 0.000000
													CHANNELS 3 Xrotation Yrotation Zrotation
													JOINT RightHandPinky4
													{
														OFFSET -5.847786 0.000000 0.000000
														CHANNELS 3 Xrotation Yrotation Zrotation
														End Site
														{
															OFFSET 0.000000 0.000000 0.000000
														}
													}
												}
											}
										}
									}
								}
							}
						}
					}
				}
			}
		}
	}
	JOINT LeftUpLeg
	{
		OFFSET 13.026900 -6.336304 -1.092800
		CHANNELS 3 Xrotation Yrotation Zrotation
		JOINT LeftLeg
		{
			OFFSET 0.524474 -46.096886 9.782700
			CHANNELS 3 Xrotation Yrotation Zrotation
			JOINT LeftFoot
			{
				OFFSET -0.524474 -53.427422 -12.948200
				CHANNELS 3 Xrotation Yrotation Zrotation
				JOINT LeftToeBase
				{
					OFFSET 0.192200 -14.009700 16.364100
					CHANNELS 3 Xrotation Yrotation Zrotation
					JOINT LeftToe_End
					{
						OFFSET -1.784700 -0.561700 9.474800
						CHANNELS 3 Xrotation Yrotation Zrotation
						End Site
						{
							OFFSET 0.000000 0.000000 0.000000
						}
					}
				}
			}
		}
	}
	JOINT RightUpLeg
	{
		OFFSET -12.883000 -6.336304 -1.092800
		CHANNELS 3 Xrotation Yrotation Zrotation
		JOINT RightLeg
		{
			OFFSET -0.524587 -46.096825 9.782800
			CHANNELS 3 Xrotation Yrotation Zrotation
			JOINT RightFoot
			{
				OFFSET 0.524587 -53.427383 -12.948300
				CHANNELS 3 Xrotation Yrotation Zrotation
				JOINT RightToeBase
				{
					OFFSET -0.192200 -14.009700 16.364100
					CHANNELS 3 Xrotation Yrotation Zrotation
					JOINT RightToe_End
					{
						OFFSET 1.784700 -0.561700 9.474800
						CHANNELS 3 Xrotation Yrotation Zrotation
						End Site
						{
							OFFSET 0.000000 0.000000 0.000000
						}
					}
				}
			}
		}
	}
}
MOTION
Frames: 4
Frame Time: 0.016667
-0.245887 117.268875 0.570100 -3.659501 3.286125 2.443756 4.350080 -0.740294 -0.785610 1.013959 -0.170731 0.054478 0.000000 0.000000 0.000000 1.013875 -0.177046 0.069539 0.942214 -0.544783 0.126542 -6.488562 -5.987211 -1.414549 -0.000000 -0.000000 0.000000 0.674922 -2.078744 -16.856782 0.000000 0.000000 0.000000 4.778423 -6.136924 -37.933863 0.000024 -66.118936 0.000038 -4.833214 -7.576968 -60.543050 -7.220061 -16.942335 15.004568 8.348837 0.689830 4.880231 -0.062064 -18.560332 11.893753 -0.000000 -0.000000 0.000001 -0.978085 -1.241631 -15.183693 1.002377 3.278830 -33.989695 0.129195 1.224847 -12.042753 -0.000004 -0.000001 0.000000 0.805746 5.211340 -29.108822 1.066663 3.372074 -35.098150 0.556032 2.493062 -25.142710 -0.000001 0.000001 0.000001 6.496555 12.626983 -37.570842 1.949511 4.363740 -48.129092 0.031851 0.610641 -5.969652 0.000002 0.000001 -0.000001 9.161851 25.681026 -47.169857 0.954755 3.207193 -33.147820 0.495754 2.360468 -23.718827 0.000001 -0.000001 -0.000000 0.088521 8.205037 21.087097 0.000000 0.000000 0.000000 -3.899870 6.709554 55.252569 -0.000007 9.850092 0.000038 33.602393 9.190956 0.661900 9.076636 11.156476 -7.011597 22.190702 -26.308861 10.011981 6.596531 -21.950681 -17.823638 0.000004 0.000001 0.000000 3.041019 7.562636 51.714624 1.573271 -3.491487 48.501904 0.436164 -1.969610 24.970798 0.000000 0.000002 0.000001 -3.185438 -4.004862 67.076836 1.304823 -3.234649 43.928293 0.443933 -1.986182 25.195658 -0.000000 -0.000000 -0.000002 -4.626543 -1.781850 57.138289 2.278830 -4.005243 59.262744 1.035948 -2.930428 38.931453 -0.000001 0.000002 -0.000001 -7.034695 -9.338168 44.934220 1.908682 -3.761118 53.801636 2.442840 -4.098096 61.583841 0.000001 -0.000001 -0.000002 -2.243057 8.318361 3.597960 15.100918 3.760336 0.657472 -8.525259 0.615144 -4.232141 -0.999557 -0.000001 0.000002 0.000000 -0.000000 0.000000 -3.161186 -11.686382 -10.472793 16.611749 -4.877413 -1.286881 -8.792888 -2.001421 8.993214 -2.518104 -0.000005 0.000002 0.000000 -0.000000 0.000000 
-0.237939 117.270859 0.592259 -3.659801 3.369566 2.467801 4.294969 -0.705225 -0.798773 1.003490 -0.162739 0.054478 0.000000 0.000000 0.000000 1.003402 -0.169834 0.069539 0.967348 -0.361658 0.089159 -6.296967 -5.810300 -1.351242 -0.000000 0.000000 -0.000000 0.668922 -2.098532 -16.857004 0.000000 0.000000 0.000000 4.777334 -6.116301 -37.949371 0.000034 -66.118956 0.000042 -4.804801 -7.604652 -60.565350 -7.220061 -16.942341 15.004563 8.348842 0.690224 4.880255 -0.062036 -18.560322 11.893776 -0.000000 0.000000 -0.000001 -0.984010 -1.230250 -15.277771 0.998175 3.272617 -33.916288 0.129201 1.224847 -12.042750 0.000001 0.000002 -0.000001 0.808636 5.216534 -29.166953 1.066661 3.372070 -35.098129 0.555598 2.492106 -25.132309 0.000000 0.000000 -0.000001 6.505256 12.626497 -37.619589 1.947872 4.362276 -48.107375 0.031989 0.612048 -5.983740 0.000002 -0.000000 -0.000000 9.177742 25.678974 -47.209912 0.954745 3.207183 -33.147799 0.495753 2.360478 -23.718827 -0.000001 0.000000 -0.000001 0.189312 8.114527 20.696781 0.000000 0.000000 0.000000 -3.948094 6.617980 55.456970 0.000002 9.661268 -0.000009 33.524706 9.281785 1.219413 8.533739 11.109499 -7.539705 22.252707 -26.276146 10.224525 6.552873 -21.210000 -17.627834 0.000000 -0.000001 0.000003 3.035202 7.424124 51.008898 1.532235 -3.454820 47.824605 0.431736 -1.960070 24.841275 -0.000000 -0.000001 0.000001 -3.314736 -3.863940 66.407081 1.290199 -3.219419 43.668592 0.441286 -1.980549 25.119107 0.000002 0.000001 0.000000 -4.917040 -1.736445 57.961696 2.213076 -3.965499 58.316934 1.017868 -2.907928 38.576331 -0.000005 -0.000002 -0.000006 -7.357669 -8.917695 46.621051 1.809456 -3.686590 52.273620 2.264488 -3.996707 59.057299 -0.000001 0.000001 -0.000001 -2.246493 8.335255 3.586200 15.102537 3.701989 0.622586 -8.525418 0.615608 -4.156673 -0.943203 0.000006 0.000001 0.000000 0.000001 0.000000 -3.124650 -11.685206 -10.496484 16.603012 -4.959825 -1.286703 -8.809431 -2.011391 9.022360 -2.518104 -0.000003 0.000002 -0.000000 0.000000 0.000000 
-0.230251 117.275932 0.615795 -3.665257 3.463457 2.498255 4.241133 -0.672802 -0.811364 0.993089 -0.154234 0.054478 0.000000 0.000000 0.000000 0.993004 -0.161421 0.069539 0.993620 -0.171604 0.051405 -6.089672 -5.592143 -1.285595 -0.000000 0.000000 -0.000000 0.669284 -2.097340 -16.856985 0.000000 0.000000 0.000000 4.776128 -6.115300 -37.967741 0.000021 -66.105276 0.000017 -4.795292 -7.620679 -60.578573 -7.220059 -16.942339 15.004570 8.343769 0.679838 4.884431 -0.062038 -18.560308 11.893783 -0.000000 0.000000 -0.000001 -0.987275 -1.223912 -15.330083 0.996347 3.269894 -33.884251 0.129202 1.224850 -12.042753 -0.000001 0.000003 -0.000002 0.810374 5.219607 -29.201579 1.066668 3.372093 -35.098150 0.555248 2.491376 -25.124639 0.000004 0.000001 0.000001 6.508800 12.626300 -37.639424 1.946206 4.360800 -48.085655 0.032035 0.612411 -5.987214 0.000000 0.000000 -0.000000 9.181758 25.678462 -47.219983 0.954733 3.207167 -33.147810 0.495752 2.360470 -23.718824 -0.000001 -0.000001 0.000000 0.288256 8.054238 20.313280 0.000000 0.000000 0.000000 -4.008386 6.518857 55.627151 0.000003 9.463826 0.000000 33.489551 9.471043 1.838408 7.972951 11.044963 -8.116742 22.324016 -26.238155 10.469547 6.488872 -20.386361 -17.437528 0.000001 0.000001 -0.000000 3.024034 7.283635 50.293579 1.491112 -3.417177 47.138472 0.428093 -1.952195 24.734673 0.000000 -0.000001 0.000001 -3.452784 -3.715135 65.737060 1.275071 -3.203531 43.398554 0.438262 -1.974094 25.031521 0.000001 0.000000 -0.000003 -5.217639 -1.713530 58.887077 2.144025 -3.922145 57.312978 0.999426 -2.884687 38.211282 -0.000000 -0.000000 -0.000004 -7.711642 -8.515086 48.478518 1.703787 -3.602531 50.611524 2.078042 -3.879116 56.343036 0.000001 -0.000001 -0.000002 -2.231525 8.345308 3.561591 15.078245 3.640352 0.597645 -8.513303 0.613214 -4.111213 -0.919568 0.000012 0.000001 -0.000000 0.000000 0.000000 -3.075598 -11.684014 -10.524087 16.586739 -5.049911 -1.286720 -8.824813 -2.025882 9.053695 -2.518104 -0.000006 0.000002 -0.000000 0.000001 -0.000000 
-0.217885 117.283348 0.640311 -3.672206 3.567188 2.539659 4.188045 -0.641275 -0.822689 0.983113 -0.144933 0.054478 0.000000 0.000000 0.000000 0.983031 -0.152244 0.066660 1.021000 0.026480 0.013595 -5.859408 -5.331690 -1.206529 -0.000000 0.000000 0.000000 0.672029 -2.087341 -16.865554 0.000000 0.000000 0.000000 4.773022 -6.120772 -37.983454 0.000029 -66.086144 0.000029 -4.796967 -7.633353 -60.590499 -7.220061 -16.942335 15.004568 8.332875 0.653614 4.892522 -0.061168 -18.560762 11.897651 -0.000001 -0.000000 -0.000002 -0.987881 -1.222738 -15.339792 0.996449 3.270084 -33.886385 0.129296 1.225268 -12.046890 0.000000 -0.000001 0.000000 0.810721 5.220250 -29.208655 1.066698 3.372090 -35.098153 0.555016 2.490846 -25.118629 0.000001 0.000002 0.000000 6.508702 12.626311 -37.638826 1.945104 4.359796 -48.070957 0.031960 0.611811 -5.981317 0.000003 0.000001 -0.000001 9.177550 25.679025 -47.209356 0.954749 3.207173 -33.147813 0.495536 2.359988 -23.713735 0.000001 -0.000001 -0.000000 0.391139 7.989680 19.911497 0.000000 0.000000 0.000000 -4.059861 6.438537 55.791587 0.000011 9.308324 -0.000034 33.459738 9.705528 2.456286 7.393734 10.964009 -8.735731 22.404755 -26.196666 10.745433 6.405748 -19.486753 -17.252971 -0.000002 0.000002 0.000001 3.009637 7.138846 49.568677 1.449921 -3.378554 46.443456 0.425173 -1.945845 24.648937 0.000001 -0.000001 -0.000001 -3.597560 -3.558806 65.066096 1.259523 -3.187035 43.119602 0.434900 -1.966878 24.933636 0.000000 0.000002 0.000001 -5.523632 -1.714915 59.897897 2.072289 -3.875284 56.257840 0.980687 -2.860757 37.837496 -0.000004 -0.000001 -0.000002 -8.097108 -8.141688 50.479903 1.593490 -3.509255 48.833243 1.886702 -3.744947 53.465505 -0.000001 -0.000001 0.000002 -2.205175 8.349268 3.517853 15.038562 3.580539 0.579809 -8.494845 0.609961 -4.067639 -0.909055 -0.000005 0.000002 0.000000 0.000000 -0.000000 -3.022363 -11.682664 -10.564406 16.567508 -5.147592 -1.286850 -8.839495 -2.044376 9.090470 -2.518104 -0.000004 0.000002 -0.000000 -0.000001 0.000000 
